<?xml version="1.0" encoding="utf-8"?><svg viewBox="0 0 189.47 189.47" xmlns="http://www.w3.org/2000/svg" xmlns:xlink="http://www.w3.org/1999/xlink"><style>:root>svg{display:none}:root>svg:target{display:block}</style><svg fill="none" viewBox="0 0 32 32" id="cart" xmlns="http://www.w3.org/2000/svg"><g fill="#fff" clip-path="url(#aa)"><path d="M12.162 23.92a4.045 4.045 0 0 0-4.04 4.04 4.045 4.045 0 0 0 4.04 4.04 4.045 4.045 0 0 0 4.04-4.04 4.045 4.045 0 0 0-4.04-4.04Zm0 5.656a1.618 1.618 0 0 1-1.616-1.616c0-.891.725-1.616 1.616-1.616.89 0 1.616.725 1.616 1.616 0 .892-.725 1.616-1.616 1.616ZM24.121 23.92a4.045 4.045 0 0 0-4.04 4.04A4.045 4.045 0 0 0 24.12 32a4.045 4.045 0 0 0 4.04-4.04 4.045 4.045 0 0 0-4.04-4.04Zm0 5.656a1.618 1.618 0 0 1-1.616-1.616c0-.891.725-1.616 1.616-1.616.892 0 1.616.725 1.616 1.616 0 .892-.724 1.616-1.616 1.616ZM31.13 7.892c-.23-.29-.579-.458-.948-.458H8.958L7.856 1.866a1.212 1.212 0 0 0-.97-.957L2.037.02A1.212 1.212 0 1 0 1.6 2.405l4.038.74 3.557 17.98c.112.567.61.976 1.19.976h16.969c.564 0 1.053-.389 1.18-.94L31.364 8.92a1.211 1.211 0 0 0-.233-1.027Zm-4.74 11.785H11.38L9.437 9.859h19.22l-2.267 9.818Z"/></g><defs><clipPath id="aa"><path fill="#fff" d="M0 0h32v32H0z"/></clipPath></defs></svg><svg fill="none" viewBox="0 0 32 32" id="fire" xmlns="http://www.w3.org/2000/svg"><path d="M17.247 7.25a6.71 6.71 0 0 1 1.25 3.9v1.35a1.92 1.92 0 0 0 1.864-1.455l.136-.545.37.443a3.937 3.937 0 0 1-.036 5.084 1.384 1.384 0 1 0 2.132 1.765l1.034-1.292 1 2.5a8.74 8.74 0 0 1-2.191 8.691l-.127.126a9.159 9.159 0 0 1-6.476 2.683h-1.02A9.16 9.16 0 0 1 8.12 15.507l4.048-4.9a3.369 3.369 0 0 0 .481-3.512 3.367 3.367 0 0 1 1.21-4.17L15.996 1.5v1.85c0 1.398.437 2.762 1.25 3.9Z" fill="url(#ba)"/><path d="m19.689 27.088.004-.004A6.214 6.214 0 0 0 21.257 21l-1.454 1.455a1.477 1.477 0 0 1-2.522-.979c-.017-.368.105-.73.34-1.013a3.907 3.907 0 0 0 .494-4.248L15.758 11.5l-.363 3.988a3.566 3.566 0 0 1-1.323 2.46l-2.061 1.65a4.671 4.671 0 0 0-1.753 3.647v.567a4.672 4.672 0 0 0 4.717 4.671l1.445-.014a4.671 4.671 0 0 0 3.269-1.38Z" fill="#FDD04A"/><path d="M7.5 12a.5.5 0 0 1-.5-.5v-1a.5.5 0 0 1 1 0v1a.5.5 0 0 1-.5.5Z" fill="#FE691E"/><path d="M9 9.5a.5.5 0 0 1-.5-.5V8a.5.5 0 1 1 1 0v1a.5.5 0 0 1-.5.5Z" fill="#FF8D54"/><path d="M7 7.5a.5.5 0 0 1-.5-.5V6a.5.5 0 1 1 1 0v1a.5.5 0 0 1-.5.5Z" fill="#FFB895"/><path d="M24.5 13.5a.5.5 0 0 1-.5-.5v-1a.5.5 0 0 1 1 0v1a.5.5 0 0 1-.5.5Z" fill="#FE691E"/><path d="M23 10a.5.5 0 0 1-.5-.5v-1a.5.5 0 0 1 1 0v1a.5.5 0 0 1-.5.5Z" fill="#FF8D54"/><path d="M25 8.5a.5.5 0 0 1-.5-.5V6.5a.5.5 0 0 1 1 0V8a.5.5 0 0 1-.5.5Z" fill="#FFB895"/><defs><linearGradient id="ba" x1="15.694" y1="1.5" x2="15.694" y2="30.5" gradientUnits="userSpaceOnUse"><stop stop-color="#FF9159"/><stop offset=".688" stop-color="#FF7631"/><stop offset="1" stop-color="#FF6A1F"/></linearGradient></defs></svg><svg viewBox="0 0 169.063 169.063" style="enable-background:new 0 0 169.063 169.063" xml:space="preserve" id="instagram" xmlns="http://www.w3.org/2000/svg"><path d="M122.406 0H46.654C20.929 0 0 20.93 0 46.655v75.752c0 25.726 20.929 46.655 46.654 46.655h75.752c25.727 0 46.656-20.93 46.656-46.655V46.655C169.063 20.93 148.133 0 122.406 0zm31.657 122.407c0 17.455-14.201 31.655-31.656 31.655H46.654C29.2 154.063 15 139.862 15 122.407V46.655C15 29.201 29.2 15 46.654 15h75.752c17.455 0 31.656 14.201 31.656 31.655v75.752z"/><path d="M84.531 40.97c-24.021 0-43.563 19.542-43.563 43.563 0 24.02 19.542 43.561 43.563 43.561s43.563-19.541 43.563-43.561c0-24.021-19.542-43.563-43.563-43.563zm0 72.123c-15.749 0-28.563-12.812-28.563-28.561 0-15.75 12.813-28.563 28.563-28.563s28.563 12.813 28.563 28.563c0 15.749-12.814 28.561-28.563 28.561zM129.921 28.251c-2.89 0-5.729 1.17-7.77 3.22a11.053 11.053 0 0 0-3.23 7.78c0 2.891 1.18 5.73 3.23 7.78 2.04 2.04 4.88 3.22 7.77 3.22 2.9 0 5.73-1.18 7.78-3.22 2.05-2.05 3.22-4.89 3.22-7.78 0-2.9-1.17-5.74-3.22-7.78-2.04-2.05-4.88-3.22-7.78-3.22z"/></svg><svg fill="none" viewBox="0 0 170 48" id="logo" xmlns="http://www.w3.org/2000/svg"><path d="M27.437 11.918c-5.42.696-16.843-2.302-17.54-7.723l-.08.01a16.494 16.494 0 0 0 18.46 14.257 9.896 9.896 0 1 1-8.553 11.08A16.491 16.491 0 0 0 1.262 15.286l.01.08c5.42-.697 11.21 9.592 11.908 15.013h-.001a16.495 16.495 0 1 0 14.258-18.462Z" fill="url(#da)"/><path d="M57.787 14.096V33h-3.791V14.096h3.791Zm12.061 3.683c1.787 0 3.232.569 4.333 1.706 1.102 1.12 1.652 2.69 1.652 4.713V33h-3.791v-8.288c0-1.191-.298-2.103-.894-2.735-.596-.65-1.408-.975-2.438-.975-1.047 0-1.877.325-2.491.975-.596.632-.894 1.544-.894 2.735V33h-3.792V17.996h3.792v1.869a5.14 5.14 0 0 1 1.923-1.517 5.957 5.957 0 0 1 2.6-.569Zm16.47 3.331h-2.627V33h-3.846V21.11H78.14v-3.114h1.706v-.758c0-1.842.524-3.196 1.571-4.063 1.047-.867 2.627-1.273 4.74-1.219v3.196c-.921-.018-1.562.136-1.923.46-.361.325-.542.912-.542 1.76v.624h2.627v3.114Zm4.38-4.902c-.668 0-1.227-.207-1.679-.623-.433-.433-.65-.966-.65-1.598 0-.631.217-1.155.65-1.57.451-.434 1.011-.65 1.68-.65.667 0 1.218.216 1.651.65.452.415.678.939.678 1.57 0 .632-.226 1.165-.678 1.598-.433.416-.984.623-1.652.623Zm1.87 1.788V33h-3.793V17.996h3.792Zm12.06-.217c1.787 0 3.232.569 4.333 1.706 1.102 1.12 1.652 2.69 1.652 4.713V33h-3.791v-8.288c0-1.191-.298-2.103-.894-2.735-.596-.65-1.408-.975-2.438-.975-1.047 0-1.877.325-2.491.975-.596.632-.894 1.544-.894 2.735V33h-3.792V17.996h3.792v1.869a5.132 5.132 0 0 1 1.923-1.517 5.955 5.955 0 0 1 2.6-.569Zm11.514-1.57c-.668 0-1.228-.208-1.679-.624-.434-.433-.65-.966-.65-1.598 0-.631.216-1.155.65-1.57.451-.434 1.011-.65 1.679-.65.668 0 1.219.216 1.652.65.451.415.677.939.677 1.57a2.13 2.13 0 0 1-.677 1.598c-.433.416-.984.623-1.652.623Zm1.869 1.787V33h-3.792V17.996h3.792Zm7.212 11.89h6.69V33h-10.996v-3.06l6.554-8.83h-6.527v-3.114h10.888v3.06l-6.609 8.83Zm8.651-4.442c0-1.517.298-2.862.894-4.036.613-1.173 1.435-2.076 2.464-2.708 1.047-.632 2.212-.948 3.494-.948 1.119 0 2.094.226 2.925.677.849.452 1.526 1.02 2.031 1.706v-2.14h3.819V33h-3.819v-2.194c-.487.704-1.164 1.291-2.031 1.76-.849.452-1.833.678-2.952.678a6.445 6.445 0 0 1-3.467-.975c-1.029-.65-1.851-1.562-2.464-2.736-.596-1.191-.894-2.555-.894-4.09Zm11.808.054c0-.92-.18-1.706-.542-2.356-.361-.668-.848-1.174-1.462-1.517a3.834 3.834 0 0 0-1.977-.542c-.704 0-1.354.172-1.95.515-.596.343-1.083.849-1.463 1.517-.361.65-.541 1.426-.541 2.329 0 .902.18 1.697.541 2.383.38.668.867 1.183 1.463 1.544a3.787 3.787 0 0 0 1.95.542c.704 0 1.363-.172 1.977-.515a3.937 3.937 0 0 0 1.462-1.517c.362-.668.542-1.462.542-2.383Zm9.445-9.29c-.668 0-1.228-.207-1.679-.623a2.173 2.173 0 0 1-.65-1.598c0-.631.217-1.155.65-1.57.451-.434 1.011-.65 1.679-.65.668 0 1.219.216 1.652.65.452.415.677.939.677 1.57 0 .632-.225 1.165-.677 1.598-.433.416-.984.623-1.652.623Zm1.869 1.788V33h-3.792V17.996h3.792Z" fill="#fff"/><path d="M169.498 26.49H164v5.497h5.498V26.49Z" fill="#3BAAFB"/><defs><linearGradient id="da" x1="16.303" y1="9.706" x2="49.29" y2="47.641" gradientUnits="userSpaceOnUse"><stop stop-color="#57B8FF"/><stop offset=".941" stop-color="#038EF2"/><stop offset="1" stop-color="#fff" stop-opacity="0"/></linearGradient></defs></svg><svg viewBox="0 0 189.473 189.473" style="enable-background:new 0 0 189.473 189.473" xml:space="preserve" id="telegram" xmlns="http://www.w3.org/2000/svg"><path d="M152.531 179.476c-1.48 0-2.95-.438-4.211-1.293l-47.641-32.316-25.552 18.386a7.502 7.502 0 0 1-11.633-4.174l-12.83-48.622L4.821 93.928a7.501 7.501 0 0 1-.094-13.975l174.312-69.36a7.503 7.503 0 0 1 10.282 8.408L159.898 173.38a7.499 7.499 0 0 1-7.367 6.096zm-47.669-48.897 42.437 28.785L170.193 39.24l-82.687 79.566 17.156 11.638c.069.043.135.089.2.135zm-35.327-6.401 5.682 21.53 12.242-8.809-16.03-10.874a7.478 7.478 0 0 1-1.894-1.847zM28.136 86.782l31.478 12.035a7.5 7.5 0 0 1 4.573 5.092l3.992 15.129a7.504 7.504 0 0 1 2.259-4.624L149.227 38.6 28.136 86.782z"/></svg><svg viewBox="0 0 52.851 52.851" style="enable-background:new 0 0 52.851 52.851" xml:space="preserve" id="twitter" xmlns="http://www.w3.org/2000/svg"><path d="M52.412 9.656a1.002 1.002 0 0 0-1.165.031c-.449.34-1.179.61-1.965.818 2.047-2.294 2.091-3.826 2.069-4.178a1 1 0 0 0-1.586-.746c-2.303 1.674-4.597 2.027-5.961 2.063a11.067 11.067 0 0 0-7.707-3.102c-6.196 0-11.236 5.108-11.236 11.386 0 .54.038 1.079.113 1.613C14.236 17.42 5.516 7.131 5.426 7.024a1 1 0 0 0-1.634.142c-3.09 5.36-1.022 10.068.868 12.764a6.617 6.617 0 0 1-.767-.473 1 1 0 0 0-1.598.786c-.083 5.108 2.375 8.034 4.687 9.652a1 1 0 0 0-1.056 1.287c1.597 5.227 5.518 7.003 8.013 7.606-5.13 3.994-12.68 2.708-12.763 2.694a1 1 0 0 0-.783 1.779c5.415 4.133 11.892 5.048 16.57 5.048 3.539 0 6.05-.524 6.29-.577 23.698-5.616 24.365-27.323 24.31-30.88 4.449-4.137 5.144-5.713 5.251-6.103a.997.997 0 0 0-.402-1.093zm-6.538 6.035a1 1 0 0 0-.32.803c.063.96 1.275 23.597-22.742 29.288-.109.023-9.656 2.015-17.932-2.085 3.497-.097 8.511-1.013 12.004-4.935a.998.998 0 0 0-.746-1.665h-.01c-.05.032-5.301-.006-7.705-5.001.968.055 2.162-.005 3.113-.443a1 1 0 0 0-.213-1.887c-.269-.057-6.115-1.364-6.933-7.741.887.388 2.022.705 3.144.534a.999.999 0 0 0 .506-1.745c-.25-.218-5.74-5.097-3.137-11.39 2.826 2.965 11.196 10.67 21.337 10.088a1.004 1.004 0 0 0 .913-1.242 9.628 9.628 0 0 1-.29-2.341c0-5.176 4.144-9.386 9.237-9.386 2.491 0 4.828.994 6.579 2.8.184.19.437.299.701.304 1.06.015 2.802-.11 4.77-.899-.568.707-1.402 1.554-2.629 2.518a1 1 0 0 0 .698 1.783 22.6 22.6 0 0 0 2.764-.414 56.969 56.969 0 0 1-3.109 3.056z"/></svg></svg>